PathFileType	4	(X/Y/Z)	/Users/itak/Documents/Research/Walk-IL/dataset/trc/00474_00167.trc
DataRate	CameraRate	NumFrames	NumMarkers	Units	OrigDataRate	OrigDataStartFrame	OrigNumFrames
100.000000	100.000000	4	53	mm	100.000000	493	564
Frame#	Time	RPSI			LPSI			L3			STRN			T10			C7			CLAV			RBAK			LBAK			LSHO			LUPA			LAEL			LAOL			LWTS			LWPS			LFRA			LIFD			LHPS			LHTS			RSHO			RUPA			RAEL			RAOL			RWTS			RWPS			RFRA			RIFD			RHTS			RHPS			RBHD			LFHD			RFHD			LBHD			LHIP			RHIP			RASI			LASI			LKNE			LTHI			LANK			LTIP			LTOE			LMT1			LMT5			LHEE			RKNE			RTHI			RANK			RTIP			RTOE			RMT1			RMT5			RHEE			
		X1	Y1	Z1	X2	Y2	Z2	X3	Y3	Z3	X4	Y4	Z4	X5	Y5	Z5	X6	Y6	Z6	X7	Y7	Z7	X8	Y8	Z8	X9	Y9	Z9	X10	Y10	Z10	X11	Y11	Z11	X12	Y12	Z12	X13	Y13	Z13	X14	Y14	Z14	X15	Y15	Z15	X16	Y16	Z16	X17	Y17	Z17	X18	Y18	Z18	X19	Y19	Z19	X20	Y20	Z20	X21	Y21	Z21	X22	Y22	Z22	X23	Y23	Z23	X24	Y24	Z24	X25	Y25	Z25	X26	Y26	Z26	X27	Y27	Z27	X28	Y28	Z28	X29	Y29	Z29	X30	Y30	Z30	X31	Y31	Z31	X32	Y32	Z32	X33	Y33	Z33	X34	Y34	Z34	X35	Y35	Z35	X36	Y36	Z36	X37	Y37	Z37	X38	Y38	Z38	X39	Y39	Z39	X40	Y40	Z40	X41	Y41	Z41	X42	Y42	Z42	X43	Y43	Z43	X44	Y44	Z44	X45	Y45	Z45	X46	Y46	Z46	X47	Y47	Z47	X48	Y48	Z48	X49	Y49	Z49	X50	Y50	Z50	X51	Y51	Z51	X52	Y52	Z52	X53	Y53	Z53	

494	4.93	-455.2837829589844	965.4017333984375	-476.8262023925781	-467.6189270019531	966.4010620117188	-334.9081726074219	-485.22412109375	1070.034301757812	-434.7031555175781	-780.5457763671875	1241.091064453125	-446.193359375	-486.1183776855469	1194.941284179688	-446.0342407226562	-579.3621826171875	1454.74560546875	-480.946044921875	-752.5960083007812	1356.453002929688	-452.3708190917969	-510.7044677734375	1330.574340820312	-567.0792846679688	-536.5433959960938	1419.345703125	-382.0541381835938	-637.1915283203125	1438.084716796875	-300.5032653808594	-605.9171752929688	1336.408813476562	-191.8150939941406	-598.6387939453125	1132.09375	-121.5146484375	-527.5237426757812	1108.39794921875	-192.8794097900391	-692.1253051757812	932.7637939453125	-132.2388153076172	-639.3335571289062	920.6937255859375	-80.49156951904297	-621.5691528320312	1046.993408203125	-98.69126129150391	-710.4718627929688	779.9552612304688	-93.23478698730469	-653.5693359375	846.7858276367188	-66.60094451904297	-714.3477783203125	854.0321044921875	-105.8929672241211	-645.6220092773438	1409.171752929688	-631.2847900390625	-626.7058715820312	1351.427001953125	-707.34814453125	-623.5965576171875	1070.392822265625	-777.2037963867188	-570.8990478515625	1045.95166015625	-741.9423217773438	-758.1881103515625	888.9407958984375	-726.6942138671875	-700.3890380859375	862.1167602539062	-789.1400146484375	-637.2876586914062	1013.211608886719	-787.6455078125	-800.4603881835938	740.0049438476562	-744.5001220703125	-797.242431640625	800.2432861328125	-742.9501953125	-737.6456909179688	783.3682861328125	-790.3699951171875	-742.4259643554688	1629.095458984375	-573.3519287109375	-863.4957885742188	1594.380249023438	-409.3514404296875	-869.5919189453125	1586.90283203125	-539.9303588867188	-721.2708129882812	1649.90380859375	-398.3041076660156	-619.7344360351562	874.5111083984375	-222.8967132568359	-561.1959838867188	854.1007080078125	-615.513427734375	-672.670166015625	897.6014404296875	-567.5418701171875	-702.8431396484375	909.9470825195312	-315.7767028808594	-749.63916015625	471.7400512695312	-226.1159515380859	-731.7247314453125	627.1339721679688	-218.9739990234375	-673.2531127929688	53.46376037597656	-184.9816741943359	-739.2706909179688	319.8389587402344	-196.0027770996094	-897.7396240234375	76.16953277587891	-263.25244140625	-822.1708374023438	69.64879608154297	-290.2112731933594	-823.543212890625	64.74640655517578	-179.9783935546875	-624.6339111328125	55.46223068237305	-246.4316253662109	-637.3748168945312	467.8185119628906	-579.7128295898438	-613.6309814453125	725.4608764648438	-626.72265625	-666.7479858398438	44.45702362060547	-564.8988037109375	-666.3456420898438	325.966064453125	-585.3839721679688	-879.9047241210938	46.495361328125	-509.2316284179688	-812.7960815429688	49.53644180297852	-476.5266418457031	-802.592041015625	45.94763565063477	-584.4415283203125	-599.474609375	35.41943740844727	-523.088134765625	
495	4.94	-458.4686279296875	965.0055541992188	-474.5264282226562	-471.9745483398438	964.8692626953125	-332.7004699707031	-488.6572570800781	1068.848510742188	-432.1733703613281	-783.8512573242188	1239.753540039062	-445.513427734375	-489.4216003417969	1193.860717773438	-443.3857116699219	-582.54833984375	1453.704223632812	-479.0387878417969	-755.9259643554688	1355.155029296875	-451.4451599121094	-513.4088134765625	1329.561889648438	-564.8873291015625	-540.2442016601562	1418.200073242188	-379.9019165039062	-641.3761596679688	1436.85791015625	-298.8435363769531	-610.5720825195312	1334.904418945312	-190.2078857421875	-603.0640869140625	1130.2041015625	-120.8066482543945	-531.4955444335938	1107.101440429688	-191.8898468017578	-695.6395874023438	930.459716796875	-132.9976806640625	-643.1663208007812	918.4713134765625	-80.95194244384766	-625.800048828125	1044.912109375	-98.49392700195312	-713.283935546875	777.3942260742188	-94.77291870117188	-657.0171508789062	844.4478149414062	-67.50460052490234	-717.5704345703125	851.471923828125	-107.172477722168	-648.19921875	1407.8955078125	-629.7988891601562	-629.0629272460938	1350.011352539062	-705.6959838867188	-625.5607299804688	1068.756591796875	-775.2833251953125	-572.8259887695312	1044.615844726562	-739.7691650390625	-759.0355224609375	886.4057006835938	-724.8003540039062	-700.9017944335938	859.9620361328125	-787.0316162109375	-638.77880859375	1011.442199707031	-785.5947875976562	-799.966064453125	737.06640625	-742.463623046875	-797.23486328125	797.2454223632812	-740.9832763671875	-737.527099609375	780.8421630859375	-788.181396484375	-745.8895263671875	1627.985107421875	-571.7974243164062	-866.992431640625	1592.862426757812	-407.9204711914062	-873.0277709960938	1585.570434570312	-538.4738159179688	-724.880615234375	1648.617309570312	-396.7105712890625	-623.9837036132812	871.592041015625	-222.2981414794922	-563.4744873046875	854.461181640625	-614.7946166992188	-675.2283325195312	897.7051391601562	-567.491943359375	-707.2987670898438	907.3082275390625	-315.1958923339844	-749.8665161132812	468.2843017578125	-227.3264617919922	-732.4489135742188	622.9805908203125	-219.3692626953125	-679.320556640625	50.17737197875977	-185.5238494873047	-741.9736328125	316.7107543945312	-197.3561859130859	-902.989990234375	72.09597015380859	-266.7405090332031	-827.0524291992188	66.00905609130859	-292.7664489746094	-829.8663330078125	61.23075103759766	-182.3842010498047	-630.03369140625	52.23676300048828	-246.3865051269531	-638.9129028320312	467.6960144042969	-579.6388549804688	-616.0775146484375	725.6287231445312	-626.1351318359375	-666.6121215820312	44.34114456176758	-564.8936767578125	-667.1259765625	325.6441345214844	-585.3187255859375	-879.7339477539062	46.62723922729492	-509.1470947265625	-812.6510620117188	49.44934844970703	-476.4816284179688	-802.4674682617188	46.08356475830078	-584.285400390625	-599.2752075195312	35.0718879699707	-523.0590209960938	
496	4.95	-461.6712036132812	964.5413818359375	-472.1145324707031	-476.31005859375	963.1519775390625	-330.3503723144531	-492.0667724609375	1067.544311523438	-429.5025634765625	-787.0036010742188	1238.428100585938	-444.8074645996094	-492.6627502441406	1192.681274414062	-440.5407409667969	-585.4990234375	1452.677368164062	-476.9644775390625	-759.1062622070312	1353.866088867188	-450.46923828125	-515.8286743164062	1328.492919921875	-562.4562377929688	-543.7913208007812	1417.005859375	-377.5098266601562	-645.471435546875	1435.564575195312	-297.0099487304688	-615.3018188476562	1333.23974609375	-188.452880859375	-607.7735595703125	1128.09423828125	-119.9869384765625	-535.6002807617188	1105.636962890625	-190.6589813232422	-699.227783203125	927.8547973632812	-133.8742218017578	-647.1705932617188	915.98681640625	-81.42990112304688	-630.2845458984375	1042.5849609375	-98.25876617431641	-715.9055786132812	774.4598388671875	-96.67423248291016	-660.5010375976562	841.7850952148438	-68.5526123046875	-720.7376098632812	848.5223388671875	-108.7173614501953	-650.4395751953125	1406.586181640625	-628.2284545898438	-631.0199584960938	1348.484985351562	-703.9016723632812	-627.193115234375	1066.982788085938	-773.1636962890625	-574.46240234375	1043.143432617188	-737.3233032226562	-759.5878295898438	883.765380859375	-722.77392578125	-701.0741577148438	857.6785888671875	-784.7510986328125	-639.9173583984375	1009.533020019531	-783.3548583984375	-799.1312255859375	734.02294921875	-740.116455078125	-796.8543701171875	794.1066284179688	-738.7628173828125	-737.0200805664062	778.1489868164062	-785.7470092773438	-749.1203002929688	1626.918579101562	-570.2014770507812	-870.3204345703125	1591.40185546875	-406.4854736328125	-876.2523193359375	1584.265869140625	-536.9955444335938	-728.3304443359375	1647.423095703125	-395.0875854492188	-628.2094116210938	868.510009765625	-221.5696105957031	-565.8649291992188	854.901611328125	-614.0746459960938	-677.9015502929688	897.8019409179688	-567.3873901367188	-711.780029296875	904.546875	-314.4982604980469	-749.9265747070312	464.7899780273438	-228.4014587402344	-732.9733276367188	618.6878051757812	-219.6083831787109	-683.9776611328125	47.41404342651367	-186.1062927246094	-744.1696166992188	313.545654296875	-198.7585144042969	-906.9844360351562	67.32170867919922	-270.4281616210938	-830.589111328125	62.11715316772461	-295.4762268066406	-834.865966796875	57.7353630065918	-184.8370056152344	-634.0214233398438	49.62135696411133	-246.3743133544922	-640.1469116210938	467.630615234375	-579.6571044921875	-618.5318603515625	725.8723754882812	-625.600830078125	-666.4260864257812	44.19587707519531	-564.9306030273438	-667.6493530273438	325.4058532714844	-585.3551635742188	-879.5280151367188	46.79580688476562	-509.1002807617188	-812.47216796875	49.40513610839844	-476.4818725585938	-802.337646484375	46.21017837524414	-584.154541015625	-599.0769653320312	34.76136779785156	-523.043701171875	
497	4.96	-464.8834838867188	964.0816040039062	-469.6421508789062	-480.5780944824219	961.3751220703125	-327.8991394042969	-495.4111938476562	1066.234130859375	-426.7280883789062	-790.0067749023438	1237.200927734375	-444.0769348144531	-495.8568420410156	1191.498291015625	-437.52392578125	-588.2409057617188	1451.758422851562	-474.7304382324219	-762.1482543945312	1352.671875	-449.4346008300781	-517.97802734375	1327.471069335938	-559.7889404296875	-547.1962280273438	1415.856323242188	-374.8828735351562	-649.4755859375	1434.267456054688	-294.9976806640625	-620.08642578125	1331.456420898438	-186.5662689208984	-612.7689208984375	1125.81298828125	-119.0761108398438	-539.83984375	1104.040161132812	-189.2024993896484	-702.8787231445312	925.0155639648438	-134.8698577880859	-651.345947265625	913.3045043945312	-81.92010498046875	-635.01953125	1040.065063476562	-98.00007629394531	-718.3724975585938	771.23681640625	-98.89450836181641	-664.0371704101562	838.8692626953125	-69.72231292724609	-723.859130859375	845.2671508789062	-110.5084228515625	-652.3737182617188	1405.330810546875	-626.5803833007812	-632.5997924804688	1346.921020507812	-701.9663696289062	-628.5184936523438	1065.147216796875	-770.826904296875	-575.8599853515625	1041.609985351562	-734.5807495117188	-759.8626098632812	881.0774536132812	-720.64453125	-700.9122924804688	855.3479614257812	-782.3218994140625	-640.7382202148438	1007.567077636719	-780.9210815429688	-797.9588623046875	730.9378662109375	-737.5305786132812	-796.1194458007812	790.89892578125	-736.3360595703125	-736.1409301757812	775.3826293945312	-783.1117553710938	-752.1705932617188	1625.988891601562	-568.5618896484375	-873.5139770507812	1590.067504882812	-405.0401306152344	-879.2994384765625	1583.059814453125	-535.4963989257812	-731.6629028320312	1646.416748046875	-393.4302062988281	-632.4013061523438	865.4567260742188	-220.7177886962891	-568.3736572265625	855.4324340820312	-613.338134765625	-680.712158203125	897.9071044921875	-567.2005615234375	-716.2301635742188	901.8189697265625	-313.6993103027344	-749.9241943359375	461.4818725585938	-229.3336639404297	-733.3738403320312	614.4826049804688	-219.731201171875	-687.3099365234375	45.28715133666992	-186.6527099609375	-745.9207153320312	310.5401611328125	-200.1481018066406	-909.8859252929688	62.22333145141602	-274.0027770996094	-832.9574584960938	58.2935791015625	-298.1036987304688	-838.596435546875	54.58527374267578	-187.0960693359375	-636.718994140625	47.62924957275391	-246.3617706298828	-641.0850830078125	467.6328735351562	-579.72998046875	-620.9829711914062	726.1993408203125	-625.1035766601562	-666.1838989257812	44.01974868774414	-565.0127563476562	-667.9412841796875	325.2777404785156	-585.4611206054688	-879.2890625	46.99922943115234	-509.0882263183594	-812.25732421875	49.4040641784668	-476.5229797363281	-802.200927734375	46.32265090942383	-584.0531616210938	-598.875	34.48614120483398	-523.05224609375	
